<svg xmlns="http://www.w3.org/2000/svg" xmlns:xlink="http://www.w3.org/1999/xlink" viewBox="0 0 590.21 726.19"><defs><style>.cls-1{font-size:31px;fill:#307134;}.cls-1,.cls-10,.cls-4,.cls-6{font-family:FuturaStd-Book, Futura Std;}.cls-2{letter-spacing:-0.08em;}.cls-3{fill:url(#linear-gradient);}.cls-4{font-size:22.39px;}.cls-10,.cls-19,.cls-4,.cls-6{fill:#fff;}.cls-5{fill:url(#linear-gradient-2);}.cls-6{font-size:18px;}.cls-7{fill:url(#linear-gradient-3);}.cls-8{fill:url(#linear-gradient-4);}.cls-9{fill:url(#linear-gradient-5);}.cls-10{font-size:14px;}.cls-11{letter-spacing:0.04em;}.cls-12{letter-spacing:-0.08em;}.cls-13{fill:url(#linear-gradient-6);}.cls-14{fill:url(#linear-gradient-7);}.cls-15{fill:url(#linear-gradient-8);}.cls-16{letter-spacing:0.04em;}.cls-17{fill:url(#linear-gradient-9);}.cls-18{fill:url(#linear-gradient-10);}.cls-19{stroke:#2fac66;stroke-miterlimit:10;stroke-width:3px;}</style><linearGradient id="linear-gradient" x1="297.09" y1="142.03" x2="297.09" y2="57.65" gradientUnits="userSpaceOnUse"><stop offset="0" stop-color="#063"/><stop offset="1" stop-color="#689a81"/></linearGradient><linearGradient id="linear-gradient-2" x1="132.33" y1="322.3" x2="132.33" y2="213.52" gradientTransform="translate(-21.23 -28.75)" xlink:href="#linear-gradient"/><linearGradient id="linear-gradient-3" x1="409.98" y1="59.72" x2="409.98" y2="-49.06" gradientTransform="translate(83.12 244.48)" xlink:href="#linear-gradient"/><linearGradient id="linear-gradient-4" x1="280.27" y1="207.21" x2="280.27" y2="98.43" gradientTransform="translate(16.82 109.57)" xlink:href="#linear-gradient"/><linearGradient id="linear-gradient-5" x1="294.29" y1="524.15" x2="294.29" y2="382.74" xlink:href="#linear-gradient"/><linearGradient id="linear-gradient-6" x1="97.99" y1="453.45" x2="97.99" y2="369.07" xlink:href="#linear-gradient"/><linearGradient id="linear-gradient-7" x1="556.16" y1="203.73" x2="556.16" y2="105.96" gradientTransform="translate(-65.42 304.06)" xlink:href="#linear-gradient"/><linearGradient id="linear-gradient-8" x1="483.99" y1="638.45" x2="483.99" y2="554.07" xlink:href="#linear-gradient"/><linearGradient id="linear-gradient-9" x1="416.06" y1="626.48" x2="416.06" y2="528.71" gradientTransform="translate(-323.32 81.17)" xlink:href="#linear-gradient"/><linearGradient id="linear-gradient-10" x1="562.05" y1="491.5" x2="562.05" y2="393.73" gradientTransform="translate(-270.63 223.94)" xlink:href="#linear-gradient"/></defs><title>Asset 1</title><g id="Layer_2" data-name="Layer 2"><g id="Layer_1-2" data-name="Layer 1"><text class="cls-1" transform="translate(356.01 25.73)"><tspan class="cls-2">V</tspan><tspan x="16.86" y="0">ent Site Map</tspan></text><rect class="cls-3" x="208.4" y="57.65" width="177.37" height="84.38" rx="12" ry="12"/><text class="cls-4" transform="translate(243.41 107.65)">Main Menu</text><rect class="cls-5" x="56.71" y="184.76" width="108.79" height="108.79" rx="22.92" ry="22.92" transform="translate(201.65 -8.51) rotate(45)"/><text class="cls-6" transform="translate(84.15 243.35)">Search</text><rect class="cls-7" x="438.71" y="195.42" width="108.79" height="108.79" rx="22.92" ry="22.92" transform="translate(321.07 -275.51) rotate(45)"/><text class="cls-6" transform="translate(442.82 254.01)">Future Events</text><rect class="cls-8" x="242.7" y="207.99" width="108.79" height="108.79" rx="22.92" ry="22.92" transform="translate(272.55 -133.22) rotate(45)"/><text class="cls-6" transform="translate(249.78 261.03)">Events Near <tspan x="34.57" y="21.6">Me</tspan></text><rect class="cls-9" x="205.6" y="382.74" width="177.37" height="141.41" rx="12" ry="12"/><text class="cls-4" transform="translate(262.52 411.43)">Results</text><text class="cls-10" transform="translate(220.15 453.52)">Filter: free, price, <tspan x="0" y="16.8">distance, catego</tspan><tspan class="cls-11" x="100.07" y="16.8">r</tspan><tspan class="cls-12" x="105.32" y="16.8">y</tspan><tspan x="111.17" y="16.8">, size</tspan></text><rect class="cls-13" x="9.3" y="369.07" width="177.37" height="84.38" rx="12" ry="12"/><text class="cls-4" transform="translate(20.99 419.07)">Map &amp; List View</text><rect class="cls-14" x="441.85" y="410.02" width="97.77" height="97.77" rx="22.92" ry="22.92" transform="translate(468.23 -212.6) rotate(45)"/><text class="cls-6" transform="translate(435.44 465.97)">Pick an Option</text><rect class="cls-15" x="395.3" y="554.07" width="177.37" height="84.38" rx="12" ry="12"/><text class="cls-6" transform="translate(426.73 600.45)">Event Summa<tspan class="cls-16" x="103.97" y="0">r</tspan><tspan x="110.72" y="0">y</tspan></text><rect class="cls-17" x="43.85" y="609.88" width="97.77" height="97.77" rx="22.92" ry="22.92" transform="translate(492.98 127.37) rotate(45)"/><text class="cls-6" transform="translate(48.88 664.43)">Save Event</text><rect class="cls-18" x="242.54" y="617.67" width="97.77" height="97.77" rx="22.92" ry="22.92" transform="translate(556.68 -10.84) rotate(45)"/><text class="cls-6" transform="translate(271.63 673.61)">Share</text><polyline class="cls-19" points="111.1 171.73 111.1 148.16 291.42 148.16 291.42 142.03 291.42 195.67"/><polyline class="cls-19" points="493.61 182.4 493.1 151.16 291.42 148.16"/><polyline class="cls-19" points="106.83 306.18 106.83 346.15 294.29 346.15 294.29 382.74"/><polyline class="cls-19" points="490.74 317.12 486.57 344.46 294.29 346.15 297.09 329.81"/><polyline class="cls-19" points="205.6 487.15 92.74 487.15 91.27 453.45"/><line class="cls-19" x1="382.97" y1="458.9" x2="431.1" y2="458.9"/><line class="cls-19" x1="490.74" y1="518.54" x2="490.74" y2="554.07"/><polyline class="cls-19" points="91.27 599.18 91.27 575.15 294.29 575.15 395.3 575.15"/><line class="cls-19" x1="294.29" y1="575.15" x2="291.42" y2="606.91"/></g></g></svg>