<svg xmlns="http://www.w3.org/2000/svg" viewBox="0 0 508.92 722.98"><title>logo</title><g id="Layer_2" data-name="Layer 2"><g id="Layer_1-2" data-name="Layer 1"><path d="M211.89,635.37V628.6q0-289.73-.1-579.47c0-5,1.24-8.59,5-12.16,12.4-11.88,24.38-24.2,37.14-37V721.92L0,467.71l21.41-1.29a17.51,17.51,0,0,0,3,0c14.26-3.45,22.61,4.9,31.15,14.46,9.52,10.67,20.28,20.21,30.34,30.39,16.35,16.53,32.48,33.26,48.87,49.75,13.75,13.84,27.76,27.43,41.61,41.18,10.32,10.24,20.57,20.56,30.86,30.84,1,1,2.14,1.93,3.22,2.89Z"/><path d="M297.72,723V.09c3.75,3.56,6.81,6.31,9.7,9.24,9.71,9.84,19.52,19.58,28.9,29.72a14.12,14.12,0,0,1,3.29,8.75c.24,30.5.15,61,.15,91.51V339.66c1.82-1,3.27-1.4,4.2-2.34,8.79-8.91,17.46-17.95,26.23-26.89,5.36-5.47,10.87-10.79,16.26-16.23,6.2-6.26,12.31-12.61,18.5-18.88,8.57-8.68,17.19-17.32,25.76-26,6.18-6.28,12.29-12.63,18.48-18.9,5.46-5.55,10.91-11.11,16.54-16.47a8,8,0,0,1,4.85-2.11c12.15-.16,24.31-.07,36.46,0,.43,0,.86.34,1.88.77-3.07,3.34-5.86,6.52-8.8,9.55-10.29,10.59-20.55,21.2-31,31.65-9.07,9.09-18.46,17.87-27.52,27-9.91,9.95-19.53,20.19-29.42,30.17-9,9.13-18.36,18-27.4,27.12-9.41,9.51-18.6,19.22-27.93,28.81-4.5,4.63-8.92,9.36-13.7,13.69-2.76,2.5-3.47,5.23-3.47,8.78.07,93.17-.11,186.34.3,279.51.05,9.78-3.51,16.23-10.24,22.26-5.9,5.29-11.29,11.14-16.9,16.74Z"/></g></g></svg>