<?xml version="1.0" encoding="utf-8"?>
<!-- Generator: Adobe Illustrator 24.1.3, SVG Export Plug-In . SVG Version: 6.00 Build 0)  -->
<svg version="1.1" id="Layer_1" xmlns="http://www.w3.org/2000/svg" xmlns:xlink="http://www.w3.org/1999/xlink" x="0px" y="0px"
	 viewBox="0 0 508.9 723" style="enable-background:new 0 0 508.9 723;" xml:space="preserve">
<path d="M189.7,635.4v-6.8c0-193.2,0-386.3-0.1-579.5c0-5,1.2-8.6,5-12.2C207,25.2,219,12.8,231.7,0v722l-42.1-42.2"/>
<path d="M189.7,679.9L0.1,486.3l19-1.2c1.3,0,1.6-0.1,2.7,0c7.4,0.4,20.1,4.4,27.7,13c8.5,9.6,18,18.3,27,27.4
	c14.5,14.9,28.9,30,43.4,44.9c12.2,12.5,24.6,24.7,37,37.1c9.2,9.3,18.3,18.5,27.4,27.9c0.9,0.9,4.4,3.9,5.4,4.8"/>
<path d="M317.5,389.4c0.1,93.2-0.1,186.3,0.3,279.5c0,9.8-3.5,16.2-10.2,22.3c-5.9,5.3-11.3,11.1-16.9,16.7L275.6,723V0.2
	c3.8,3.6,6.8,6.3,9.7,9.2c9.7,9.8,19.5,19.6,28.9,29.7c2.1,2.5,3.2,5.5,3.3,8.8c0.2,30.5,0.1,61,0.1,91.5v200.3"/>
<path d="M317.2,386c5.3-4.9,16.7-16.2,21.8-21.4c10.4-10.8,20.7-21.7,31.2-32.4c10.1-10.2,20.6-20.2,30.6-30.5
	c11.1-11.2,21.8-22.7,32.9-33.9c10.1-10.3,20.6-20.1,30.8-30.3c11.7-11.7,23.1-23.7,34.6-35.5c3.3-3.4,6.4-7,9.8-10.7
	c-1.1-0.5-1.6-0.9-2.1-0.9c-13.6-0.1-27.2-0.2-40.7,0c-2,0.1-3.9,1-5.4,2.4c-7.5,7.3-12.4,12.3-18.5,18.5
	c-6.9,7-13.7,14.2-20.7,21.2c-9.6,9.7-19.2,19.5-28.8,29.2c-6.9,7-13.7,14.2-20.7,21.2c-6,6.1-12.2,12.1-18.2,18.2
	c-9.8,10-19.5,20.2-29.3,30.2c-1,1.1-4.9,5.2-6.9,7.2"/>
</svg>
