<svg width="623" height="392" viewBox="0 0 623 392" fill="none" xmlns="http://www.w3.org/2000/svg">
<path d="M346.976 1.24423C353.524 10.1198 372.141 23.4402 364.766 36.0828C358.222 47.3013 341.961 60.84 348.385 75.2947C354.441 88.9205 350.819 92.9831 341.936 103.981C338.32 108.457 337.444 113.707 334.968 118.658" stroke="white" stroke-width="2" stroke-linecap="round" stroke-linejoin="round"/>
<path d="M600.483 85.3015C600.483 93.6828 604.431 109.428 594.404 112.579C582.74 116.245 571.378 121.738 560.159 126.663C539.493 135.736 515.753 145.156 501.452 163.577C497.462 168.717 494.31 174.517 490.037 179.44C484.654 185.642 475.854 187.115 468.393 189.447C455.799 193.382 445.966 198.668 436.667 207.755C433.525 210.826 430.848 216.057 426.364 216.057C422.139 216.057 417.914 216.057 413.689 216.057" stroke="white" stroke-width="2" stroke-linecap="round" stroke-linejoin="round"/>
<path d="M621.49 379.54C605.688 373.103 594.371 358.351 579.683 349.594C558.948 337.231 537.471 326.206 516.159 314.904C505.542 309.274 492.209 306.709 482.728 299.189C475.506 293.461 470.598 287.763 461.381 284.958C438.014 277.846 416.627 270.031 392 274.135" stroke="white" stroke-width="2" stroke-linecap="round" stroke-linejoin="round"/>
<path d="M325.629 390.843C325.629 382.174 324.9 374.201 327.63 366.011C330.983 355.951 331.425 344.536 325.629 335.843C321.824 330.135 322.561 321.413 323.034 314.791C323.644 306.263 324.294 298.119 324.294 289.441" stroke="white" stroke-width="2" stroke-linecap="round" stroke-linejoin="round"/>
<path d="M1.40771 329.468C9.90303 329.468 20.5426 331.181 28.8338 329.171C37.4101 327.092 41.9929 317.87 45.7342 310.788C53.7122 295.687 66.1531 301.28 79.6092 303.45C103.737 307.342 100.218 279.535 118.525 275.06C124.684 273.555 130.792 271.745 136.907 270.02C145.462 267.607 154.072 261.992 162.999 261.496C176.287 260.757 187.933 262.89 200.21 256.752C204.154 254.78 205.444 250.29 209.55 249.117C215.122 247.525 220.395 244.374 225.857 243.039C236.301 240.486 246.21 240.074 256.915 240.074C263.089 240.074 265.097 234.315 269.59 232.068" stroke="white" stroke-width="2" stroke-linecap="round" stroke-linejoin="round"/>
<path d="M45.4377 59.9509C57.518 63.016 69.1099 66.4851 77.5337 75.9618C86.6632 86.2325 99.6776 85.3015 112.743 85.3015C122.881 85.3015 133.808 83.0509 143.875 84.2638C151.868 85.2267 157.425 91.8833 162.777 97.2356C174.355 108.813 188.762 121.377 205.547 123.698C217.394 125.336 226.246 126.075 236.827 132C244.04 136.039 250.926 139.215 257.582 144.305C264.977 149.96 273.698 154.787 280.264 161.353" stroke="white" stroke-width="2" stroke-linecap="round" stroke-linejoin="round"/>
</svg>
