<svg width="240" height="217" viewBox="0 0 240 217" fill="none" xmlns="http://www.w3.org/2000/svg">
<path d="M124.152 52.7288C125.469 53.1839 126.655 53.8228 127.71 54.6458C128.775 55.459 129.675 56.4029 130.411 57.4776C131.157 58.5522 131.728 59.7285 132.125 61.0064C132.522 62.2844 132.72 63.6156 132.72 65H130.861C130.861 63.4123 130.576 61.9407 130.005 60.5853C129.443 59.2202 128.664 58.0391 127.666 57.0419C126.669 56.0447 125.488 55.2654 124.123 54.7038C122.768 54.1326 121.296 53.847 119.708 53.847C118.672 53.847 117.675 53.9777 116.717 54.2391C115.758 54.5005 114.863 54.8733 114.03 55.3573C113.207 55.8317 112.457 56.4078 111.779 57.0855C111.111 57.7535 110.535 58.5038 110.051 59.3364C109.577 60.1593 109.209 61.05 108.948 62.0085C108.686 62.9669 108.555 63.9641 108.555 65H106.697C106.697 63.6059 106.9 62.2747 107.307 61.0064C107.713 59.7285 108.289 58.557 109.035 57.4921C109.78 56.4271 110.68 55.488 111.736 54.6748C112.801 53.8616 113.987 53.2178 115.294 52.7434C114.539 52.3368 113.861 51.843 113.261 51.2621C112.66 50.6812 112.147 50.0374 111.721 49.3307C111.305 48.6143 110.981 47.8543 110.748 47.0507C110.526 46.2375 110.414 45.4049 110.414 44.5529C110.414 43.2653 110.656 42.06 111.14 40.9369C111.624 39.8042 112.288 38.8167 113.13 37.9744C113.972 37.1321 114.955 36.469 116.078 35.9849C117.211 35.5008 118.421 35.2588 119.708 35.2588C120.996 35.2588 122.201 35.5008 123.324 35.9849C124.457 36.469 125.445 37.1321 126.287 37.9744C127.129 38.8167 127.792 39.8042 128.276 40.9369C128.76 42.06 129.002 43.2653 129.002 44.5529C129.002 45.4049 128.886 46.2326 128.654 47.0362C128.431 47.8397 128.107 48.5949 127.681 49.3016C127.265 50.0084 126.756 50.657 126.156 51.2476C125.566 51.8285 124.898 52.3222 124.152 52.7288ZM112.273 44.5529C112.273 45.5791 112.467 46.5424 112.854 47.4428C113.251 48.3432 113.783 49.1322 114.451 49.8099C115.129 50.4779 115.918 51.0104 116.818 51.4073C117.719 51.7946 118.682 51.9882 119.708 51.9882C120.735 51.9882 121.698 51.7946 122.598 51.4073C123.499 51.0104 124.283 50.4779 124.951 49.8099C125.629 49.1322 126.161 48.3432 126.548 47.4428C126.945 46.5424 127.144 45.5791 127.144 44.5529C127.144 43.5267 126.945 42.5634 126.548 41.663C126.161 40.7627 125.629 39.9785 124.951 39.3105C124.283 38.6328 123.499 38.1003 122.598 37.713C121.698 37.3161 120.735 37.1176 119.708 37.1176C118.682 37.1176 117.719 37.3161 116.818 37.713C115.918 38.1003 115.129 38.6328 114.451 39.3105C113.783 39.9785 113.251 40.7627 112.854 41.663C112.467 42.5634 112.273 43.5267 112.273 44.5529Z" fill="white"/>
<path d="M124.152 52.7288L123.974 52.4025L123.235 52.8054L124.031 53.0802L124.152 52.7288ZM127.71 54.6458L127.481 54.9389L127.484 54.9412L127.71 54.6458ZM130.411 57.4776L130.104 57.6876L130.106 57.6895L130.411 57.4776ZM132.72 65V65.3718H133.092V65H132.72ZM130.861 65H130.49V65.3718H130.861V65ZM130.005 60.5853L129.661 60.7267L129.662 60.7297L130.005 60.5853ZM127.666 57.0419L127.929 56.779L127.666 57.0419ZM124.123 54.7038L123.979 55.0464L123.982 55.0477L124.123 54.7038ZM114.03 55.3573L114.216 55.6794L114.217 55.6787L114.03 55.3573ZM111.779 57.0855L111.516 56.8226L111.779 57.0855ZM110.051 59.3364L109.73 59.1495L109.729 59.1507L110.051 59.3364ZM108.555 65V65.3718H108.927V65H108.555ZM106.697 65H106.325V65.3718H106.697V65ZM107.307 61.0064L107.661 61.1199L107.661 61.1192L107.307 61.0064ZM109.035 57.4921L109.339 57.7053L109.035 57.4921ZM111.736 54.6748L111.51 54.3793L111.509 54.3803L111.736 54.6748ZM115.294 52.7434L115.42 53.0928L116.201 52.8096L115.47 52.416L115.294 52.7434ZM113.261 51.2621L113.002 51.5293L113.261 51.2621ZM111.721 49.3307L111.4 49.5175L111.403 49.5226L111.721 49.3307ZM110.748 47.0507L110.39 47.1489L110.391 47.154L110.748 47.0507ZM111.14 40.9369L111.482 41.0841L111.482 41.083L111.14 40.9369ZM116.078 35.9849L115.932 35.643L115.931 35.6435L116.078 35.9849ZM123.324 35.9849L123.177 36.3263L123.178 36.3268L123.324 35.9849ZM128.276 40.9369L127.935 41.083L127.935 41.0841L128.276 40.9369ZM128.654 47.0362L128.297 46.9329L128.296 46.9369L128.654 47.0362ZM127.681 49.3016L127.363 49.1097L127.361 49.113L127.681 49.3016ZM126.156 51.2476L126.417 51.5126L126.417 51.5126L126.156 51.2476ZM112.854 47.4428L112.512 47.5897L112.514 47.5928L112.854 47.4428ZM114.451 49.8099L114.187 50.0709L114.19 50.0747L114.451 49.8099ZM116.818 51.4073L116.668 51.7475L116.672 51.7489L116.818 51.4073ZM122.598 51.4073L122.745 51.7489L122.748 51.7475L122.598 51.4073ZM124.951 49.8099L124.688 49.547L124.951 49.8099ZM126.548 47.4428L126.208 47.2928L126.207 47.2959L126.548 47.4428ZM126.548 41.663L126.207 41.8099L126.208 41.813L126.548 41.663ZM124.951 39.3105L124.686 39.5715L124.69 39.5752L124.951 39.3105ZM122.598 37.713L122.448 38.0532L122.451 38.0545L122.598 37.713ZM116.818 37.713L116.965 38.0546L116.968 38.0532L116.818 37.713ZM114.451 39.3105L114.714 39.5733L114.451 39.3105ZM112.854 41.663L112.514 41.5131L112.512 41.5161L112.854 41.663ZM124.031 53.0802C125.31 53.5224 126.46 54.1422 127.481 54.9389L127.939 54.3526C126.85 53.5035 125.627 52.8453 124.274 52.3775L124.031 53.0802ZM127.484 54.9412C128.519 55.7312 129.392 56.6465 130.104 57.6876L130.718 57.2675C129.959 56.1594 129.031 55.1868 127.936 54.3503L127.484 54.9412ZM130.106 57.6895C130.829 58.7322 131.384 59.8741 131.77 61.1167L132.48 60.8962C132.072 59.5829 131.484 58.3722 130.717 57.2657L130.106 57.6895ZM131.77 61.1167C132.155 62.3577 132.348 63.6516 132.348 65H133.092C133.092 63.5795 132.888 62.211 132.48 60.8962L131.77 61.1167ZM132.72 64.6282H130.861V65.3718H132.72V64.6282ZM131.233 65C131.233 63.3666 130.939 61.8455 130.347 60.4409L129.662 60.7297C130.212 62.0358 130.49 63.4579 130.49 65H131.233ZM130.348 60.4439C129.769 59.0355 128.963 57.8126 127.929 56.779L127.404 57.3048C128.364 58.2656 129.117 59.4049 129.661 60.7267L130.348 60.4439ZM127.929 56.779C126.896 55.7455 125.673 54.9394 124.265 54.36L123.982 55.0477C125.303 55.5914 126.443 56.344 127.404 57.3048L127.929 56.779ZM124.267 54.3613C122.863 53.7693 121.342 53.4753 119.708 53.4753V54.2188C121.251 54.2188 122.673 54.496 123.979 55.0464L124.267 54.3613ZM119.708 53.4753C118.641 53.4753 117.611 53.61 116.619 53.8805L116.815 54.5978C117.74 54.3455 118.704 54.2188 119.708 54.2188V53.4753ZM116.619 53.8805C115.63 54.1501 114.705 54.5351 113.843 55.0359L114.217 55.6787C115.021 55.2114 115.886 54.851 116.815 54.5978L116.619 53.8805ZM113.845 55.0353C112.993 55.5261 112.217 56.1221 111.516 56.8226L112.042 57.3483C112.697 56.6935 113.421 56.1374 114.216 55.6794L113.845 55.0353ZM111.516 56.8226C110.825 57.5138 110.23 58.2897 109.73 59.1495L110.373 59.5232C110.841 58.7179 111.397 57.9932 112.042 57.3483L111.516 56.8226ZM109.729 59.1507C109.238 60.0025 108.858 60.9229 108.589 61.9106L109.306 62.1063C109.56 61.1771 109.916 60.3161 110.373 59.5221L109.729 59.1507ZM108.589 61.9106C108.318 62.9023 108.184 63.9325 108.184 65H108.927C108.927 63.9957 109.054 63.0315 109.306 62.1063L108.589 61.9106ZM108.555 64.6282H106.697V65.3718H108.555V64.6282ZM107.068 65C107.068 63.6426 107.266 62.3498 107.661 61.1199L106.952 60.8929C106.534 62.1996 106.325 63.5692 106.325 65H107.068ZM107.661 61.1192C108.056 59.8759 108.616 58.7385 109.339 57.7053L108.73 57.2789C107.962 58.3756 107.37 59.5811 106.952 60.8937L107.661 61.1192ZM109.339 57.7053C110.063 56.672 110.937 55.7601 111.963 54.9693L111.509 54.3803C110.424 55.216 109.498 56.1823 108.73 57.2789L109.339 57.7053ZM111.961 54.9703C112.995 54.1808 114.148 53.5548 115.42 53.0928L115.167 52.3939C113.826 52.8807 112.606 53.5423 111.51 54.3793L111.961 54.9703ZM115.47 52.416C114.744 52.0252 114.094 51.5515 113.519 50.995L113.002 51.5293C113.627 52.1345 114.333 52.6483 115.117 53.0707L115.47 52.416ZM113.519 50.995C112.942 50.4362 112.449 49.8176 112.04 49.1388L111.403 49.5226C111.846 50.2572 112.379 50.9263 113.002 51.5293L113.519 50.995ZM112.043 49.1439C111.642 48.454 111.329 47.7221 111.105 46.9474L110.391 47.154C110.632 47.9865 110.968 48.7745 111.4 49.5175L112.043 49.1439ZM111.107 46.9525C110.893 46.1716 110.786 45.3721 110.786 44.5529H110.042C110.042 45.4377 110.158 46.3033 110.39 47.1489L111.107 46.9525ZM110.786 44.5529C110.786 43.3132 111.019 42.1582 111.482 41.0841L110.799 40.7898C110.294 41.9617 110.042 43.2174 110.042 44.5529H110.786ZM111.482 41.083C111.948 39.9924 112.585 39.0449 113.393 38.2373L112.867 37.7115C111.99 38.5885 111.301 39.616 110.798 40.7908L111.482 41.083ZM113.393 38.2373C114.201 37.4292 115.144 36.7923 116.225 36.3263L115.931 35.6435C114.766 36.1457 113.743 36.8351 112.867 37.7115L113.393 38.2373ZM116.224 36.3268C117.308 35.8633 118.469 35.6306 119.708 35.6306V34.887C118.373 34.887 117.113 35.1383 115.932 35.643L116.224 36.3268ZM119.708 35.6306C120.948 35.6306 122.103 35.8633 123.177 36.3263L123.472 35.6435C122.3 35.1383 121.044 34.887 119.708 34.887V35.6306ZM123.178 36.3268C124.269 36.7928 125.216 37.4297 126.024 38.2373L126.55 37.7115C125.673 36.8346 124.645 36.1451 123.47 35.643L123.178 36.3268ZM126.024 38.2373C126.832 39.0449 127.468 39.9924 127.935 41.083L128.618 40.7908C128.116 39.616 127.427 38.5885 126.55 37.7115L126.024 38.2373ZM127.935 41.0841C128.398 42.1582 128.631 43.3132 128.631 44.5529H129.374C129.374 43.2174 129.123 41.9617 128.618 40.7898L127.935 41.0841ZM128.631 44.5529C128.631 45.3706 128.519 46.1636 128.297 46.9329L129.011 47.1395C129.253 46.3017 129.374 45.4392 129.374 44.5529H128.631ZM128.296 46.9369C128.082 47.7083 127.771 48.4322 127.363 49.1097L127.999 49.4936C128.443 48.7576 128.781 47.9712 129.012 47.1355L128.296 46.9369ZM127.361 49.113C126.961 49.791 126.473 50.4142 125.895 50.9826L126.417 51.5126C127.04 50.8999 127.568 50.2257 128.001 49.4903L127.361 49.113ZM125.895 50.9826C125.33 51.5387 124.69 52.012 123.974 52.4025L124.33 53.0552C125.105 52.6325 125.801 52.1183 126.417 51.5126L125.895 50.9826ZM111.901 44.5529C111.901 45.6272 112.104 46.6408 112.512 47.5897L113.195 47.2959C112.829 46.4441 112.645 45.5311 112.645 44.5529H111.901ZM112.514 47.5928C112.928 48.533 113.486 49.36 114.187 50.0709L114.716 49.5489C114.081 48.9044 113.573 48.1534 113.194 47.2928L112.514 47.5928ZM114.19 50.0747C114.901 50.7754 115.728 51.333 116.669 51.7475L116.968 51.0672C116.108 50.6878 115.357 50.1804 114.712 49.5451L114.19 50.0747ZM116.672 51.7489C117.621 52.157 118.634 52.36 119.708 52.36V51.6165C118.73 51.6165 117.817 51.4322 116.965 51.0658L116.672 51.7489ZM119.708 52.36C120.783 52.36 121.796 52.157 122.745 51.7489L122.451 51.0658C121.6 51.4322 120.687 51.6165 119.708 51.6165V52.36ZM122.748 51.7475C123.689 51.3328 124.512 50.7747 125.214 50.0728L124.688 49.547C124.054 50.1812 123.308 50.688 122.448 51.0672L122.748 51.7475ZM125.214 50.0728C125.925 49.361 126.484 48.5324 126.89 47.5897L126.207 47.2959C125.838 48.154 125.332 48.9034 124.688 49.547L125.214 50.0728ZM126.888 47.5928C127.307 46.6431 127.515 45.6285 127.515 44.5529H126.772C126.772 45.5298 126.583 46.4418 126.208 47.2928L126.888 47.5928ZM127.515 44.5529C127.515 43.4773 127.307 42.4627 126.888 41.5131L126.208 41.813C126.583 42.6641 126.772 43.5761 126.772 44.5529H127.515ZM126.89 41.5161C126.484 40.573 125.925 39.7484 125.212 39.0457L124.69 39.5752C125.332 40.2085 125.838 40.9523 126.207 41.8099L126.89 41.5161ZM125.216 39.0495C124.513 38.3365 123.688 37.7772 122.745 37.3715L122.451 38.0545C123.309 38.4234 124.053 38.929 124.686 39.5714L125.216 39.0495ZM122.748 37.3728C121.799 36.9542 120.784 36.7459 119.708 36.7459V37.4894C120.685 37.4894 121.597 37.678 122.448 38.0532L122.748 37.3728ZM119.708 36.7459C118.633 36.7459 117.618 36.9542 116.669 37.3728L116.968 38.0532C117.82 37.678 118.732 37.4894 119.708 37.4894V36.7459ZM116.672 37.3715C115.729 37.777 114.9 38.3358 114.188 39.0476L114.714 39.5733C115.358 38.9297 116.107 38.4236 116.965 38.0545L116.672 37.3715ZM114.188 39.0476C113.487 39.7495 112.928 40.5724 112.514 41.5131L113.194 41.813C113.573 40.9529 114.08 40.2075 114.714 39.5733L114.188 39.0476ZM112.512 41.5161C112.104 42.4651 111.901 43.4786 111.901 44.5529H112.645C112.645 43.5748 112.829 42.6617 113.195 41.8099L112.512 41.5161Z" fill="white"/>
<path d="M92.8594 87.875V102.406C92.8594 104.479 93.1979 105.995 93.875 106.953C94.8854 108.339 96.3073 109.031 98.1407 109.031C99.9844 109.031 101.411 108.339 102.422 106.953C103.099 106.026 103.438 104.51 103.438 102.406V87.875H107.078V103.406C107.078 105.948 106.286 108.042 104.703 109.688C102.922 111.521 100.734 112.438 98.1407 112.438C95.5469 112.438 93.3646 111.521 91.5938 109.688C90.0104 108.042 89.2188 105.948 89.2188 103.406V87.875H92.8594ZM121.047 99.375L118.141 100.922C117.682 99.9844 117.115 99.5156 116.438 99.5156C116.115 99.5156 115.839 99.625 115.609 99.8438C115.38 100.052 115.266 100.323 115.266 100.656C115.266 101.24 115.943 101.818 117.297 102.391C119.161 103.193 120.417 103.932 121.063 104.609C121.708 105.286 122.031 106.198 122.031 107.344C122.031 108.812 121.49 110.042 120.406 111.031C119.354 111.969 118.083 112.438 116.594 112.438C114.042 112.438 112.234 111.193 111.172 108.703L114.172 107.312C114.589 108.042 114.906 108.505 115.125 108.703C115.552 109.099 116.063 109.297 116.656 109.297C117.844 109.297 118.438 108.755 118.438 107.672C118.438 107.047 117.979 106.464 117.063 105.922C116.708 105.745 116.354 105.573 116 105.406C115.646 105.24 115.286 105.068 114.922 104.891C113.901 104.391 113.182 103.891 112.766 103.391C112.234 102.755 111.969 101.938 111.969 100.938C111.969 99.6146 112.422 98.5208 113.328 97.6562C114.255 96.7917 115.38 96.3594 116.703 96.3594C118.651 96.3594 120.099 97.3646 121.047 99.375ZM139.063 105.219H128.156C128.25 106.469 128.656 107.464 129.375 108.203C130.094 108.932 131.016 109.297 132.141 109.297C133.016 109.297 133.74 109.089 134.313 108.672C134.875 108.255 135.516 107.484 136.234 106.359L139.203 108.016C138.745 108.797 138.26 109.469 137.75 110.031C137.24 110.583 136.693 111.042 136.109 111.406C135.526 111.76 134.896 112.021 134.219 112.188C133.542 112.354 132.807 112.438 132.016 112.438C129.745 112.438 127.922 111.708 126.547 110.25C125.172 108.781 124.484 106.833 124.484 104.406C124.484 102 125.151 100.052 126.484 98.5625C127.828 97.0938 129.609 96.3594 131.828 96.3594C134.068 96.3594 135.839 97.0729 137.141 98.5C138.432 99.9167 139.078 101.88 139.078 104.391L139.063 105.219ZM135.453 102.344C134.964 100.469 133.781 99.5312 131.906 99.5312C131.479 99.5312 131.078 99.599 130.703 99.7344C130.328 99.8594 129.984 100.047 129.672 100.297C129.37 100.536 129.109 100.828 128.891 101.172C128.672 101.516 128.505 101.906 128.391 102.344H135.453ZM142.922 96.7812H146.438V98.1406C147.083 97.4635 147.656 97 148.156 96.75C148.667 96.4896 149.271 96.3594 149.969 96.3594C150.896 96.3594 151.865 96.6615 152.875 97.2656L151.266 100.484C150.599 100.005 149.948 99.7656 149.313 99.7656C147.396 99.7656 146.438 101.214 146.438 104.109V112H142.922V96.7812Z" fill="white"/>
</svg>
