<svg width="150" height="150" viewBox="0 0 150 150" fill="none" xmlns="http://www.w3.org/2000/svg">
<circle cx="75" cy="75" r="75" fill="#E38D3C"/>
<path d="M98.5047 77.3701L98.5054 77.3692C102.316 72.2665 104.381 66.0721 104.395 59.7037V59.7026V57.9474C104.395 50.1374 101.292 42.6474 95.7698 37.1249C90.2474 31.6025 82.7573 28.5 74.9474 28.5C67.1374 28.5 59.6474 31.6025 54.1249 37.1249C48.6025 42.6474 45.5 50.1374 45.5 57.9474L45.5 59.7026L45.5 59.7037C45.514 66.072 47.5791 72.2665 51.3894 77.3692L51.39 77.37L56.6524 84.3849C59.6518 88.4046 61.2777 93.2831 61.2895 98.2985L61.2895 115.842C61.2895 119.464 62.7284 122.938 65.2898 125.5C67.8511 128.061 71.3251 129.5 74.9474 129.5C78.5697 129.5 82.0436 128.061 84.605 125.5C87.1663 122.938 88.6053 119.464 88.6053 115.842V98.2985C88.6171 93.2832 90.2429 88.4049 93.2421 84.3851C93.2422 84.385 93.2422 84.3849 93.2423 84.3849L98.5047 77.3701ZM70.6969 121.873C69.6506 121.13 68.8195 120.13 68.2808 118.974H81.614C81.0752 120.13 80.2442 121.13 79.1978 121.873C77.9557 122.756 76.471 123.232 74.9474 123.237C73.4238 123.232 71.9391 122.756 70.6969 121.873ZM67.5526 102.184L67.5526 98.2974L67.5526 98.2963C67.5387 91.928 65.4735 85.7335 61.6633 80.6308L61.6626 80.63L56.4002 73.6152C56.4001 73.615 56.4 73.6148 56.3998 73.6147C53.4008 69.5951 51.7751 64.7171 51.7632 59.7021V57.9474C51.7632 51.7985 54.2058 45.9015 58.5537 41.5537C62.9015 37.2058 68.7985 34.7632 74.9474 34.7632C81.0962 34.7632 86.9932 37.2058 91.3411 41.5537C95.689 45.9015 98.1316 51.7985 98.1316 57.9474V59.7015C98.1198 64.7168 96.494 69.5951 93.4947 73.6149C93.4947 73.615 93.4946 73.6151 93.4945 73.6151L88.2321 80.6299L88.2315 80.6308C84.4212 85.7335 82.3561 91.9279 82.3421 98.2963V98.2974V102.184H78.0789V68.4737C78.0789 67.6431 77.749 66.8466 77.1617 66.2593C76.5744 65.672 75.7779 65.3421 74.9474 65.3421C74.1168 65.3421 73.3203 65.672 72.733 66.2593C72.1457 66.8466 71.8158 67.6431 71.8158 68.4737V102.184H67.5526ZM82.3421 108.447V112.711H67.5526V108.447H82.3421Z" fill="white" stroke="white"/>
</svg>
