<svg width="150" height="150" viewBox="0 0 150 150" fill="none" xmlns="http://www.w3.org/2000/svg">
<circle cx="75" cy="75" r="75" fill="#E38D3C"/>
<path d="M24.5 54.8232C24.5 56.7236 26.0406 58.2642 27.9411 58.2642H54.4185C56.3189 58.2642 57.8596 56.7236 57.8596 54.8232C57.8596 52.9227 56.3189 51.3821 54.4185 51.3821H27.9411C26.0406 51.3821 24.5 52.9227 24.5 54.8232ZM36.2642 95.998C36.2642 97.8985 37.8049 99.4391 39.7053 99.4391H54.4185C56.3189 99.4391 57.8596 97.8985 57.8596 95.998C57.8596 94.0976 56.3189 92.557 54.4185 92.557H39.7053C37.8049 92.557 36.2642 94.0976 36.2642 95.998ZM30.3821 75.4106C30.3821 77.311 31.9227 78.8517 33.8232 78.8517H54.4185C56.3189 78.8517 57.8596 77.311 57.8596 75.4106C57.8596 73.5102 56.3189 71.9695 54.4185 71.9695H33.8232C31.9227 71.9695 30.3821 73.5102 30.3821 75.4106ZM95.5894 45.5C79.0681 45.5 65.6788 58.8904 65.6788 75.4106C65.6788 91.9319 79.0692 105.321 95.5894 105.321C112.111 105.321 125.5 91.9308 125.5 75.4106C125.5 58.8893 112.11 45.5 95.5894 45.5ZM95.5894 98.4391C82.8699 98.4391 72.5609 88.1309 72.5609 75.4106C72.5609 62.6911 82.8691 52.3821 95.5894 52.3821C108.309 52.3821 118.618 62.6903 118.618 75.4106C118.618 88.1301 108.31 98.4391 95.5894 98.4391ZM99.0305 75.4558V65.1169C99.0305 63.2164 97.4898 61.6758 95.5894 61.6758C93.6889 61.6758 92.1483 63.2164 92.1483 65.1169V76.8811C92.1483 77.7938 92.5109 78.669 93.1562 79.3143L100.509 86.6669C101.853 88.0108 104.031 88.0108 105.375 86.6669C106.719 85.3231 106.719 83.1444 105.375 81.8006L99.0305 75.4558Z" fill="white" stroke="white"/>
</svg>
