<svg width="150" height="150" viewBox="0 0 150 150" fill="none" xmlns="http://www.w3.org/2000/svg">
<circle cx="75" cy="75" r="75" fill="#E38D3C"/>
<path d="M75.593 52.3583L75.5926 52.3587C73.1797 55.0322 72.1886 58.7127 73.0522 61.2617L75.593 52.3583ZM75.593 52.3583C77.3591 50.3975 79.4856 49.3803 81.5852 49.3803C82.0679 49.3803 82.5491 49.4353 83.033 49.5431C87.7562 50.6149 89.4715 55.0159 88.6669 58.9021L88.6669 58.9023M75.593 52.3583L88.6669 58.9023M88.6669 58.9023C88.2891 60.7313 87.3128 62.5892 85.66 63.8391C84.0192 65.0798 81.6612 65.76 78.4323 65.1557L78.4322 65.1557M88.6669 58.9023L78.4322 65.1557M78.4322 65.1557C75.474 64.6025 73.7315 63.2649 73.0522 61.2618L78.4322 65.1557ZM84.7781 93.036L84.779 93.0372C85.1431 93.5365 85.88 93.8875 86.9842 93.8199C88.0839 93.7526 89.4976 93.2662 91.0818 92.1558C93.1284 90.7196 94.9197 88.8927 96.2347 86.9949C97.554 85.0908 98.37 83.1503 98.5156 81.4884C98.6505 79.9462 98.2301 78.7436 97.2471 77.7563C97.1187 77.6406 96.8345 77.4343 96.3989 77.1473C95.9653 76.8615 95.4088 76.5131 94.7674 76.1235C93.485 75.3448 91.874 74.4086 90.2501 73.4932C88.6263 72.5777 86.9932 71.685 85.6667 70.993C85.0031 70.6468 84.4192 70.3524 83.953 70.1309C83.5618 69.9451 83.2746 69.8209 83.0968 69.7572C82.3336 69.889 81.5322 69.9591 80.6926 69.9591C79.7085 69.9591 78.6766 69.8651 77.5902 69.6601C73.1428 68.8332 69.9496 66.391 68.7097 62.7344L68.7096 62.734C68.6109 62.4422 68.5451 62.1327 68.4865 61.8575C68.481 61.8315 68.4755 61.8058 68.4701 61.7804C68.3591 61.6253 68.2429 61.4352 68.1685 61.2052L68.1684 61.2049C67.829 60.154 67.7431 58.3857 67.801 56.2791C67.8595 54.1485 68.0688 51.598 68.3585 48.9365C68.938 43.6123 69.843 37.8129 70.5252 33.9756C70.8399 32.2044 70.3369 30.72 69.2304 29.8286L84.7781 93.036ZM84.7781 93.036C84.289 92.3698 84.2646 90.8453 86.3336 89.2702L86.334 89.2699M84.7781 93.036L86.334 89.2699M86.334 89.2699C87.4329 88.4314 89.9144 86.1788 90.9891 84.8661L90.9908 84.8641M86.334 89.2699L90.9908 84.8641M90.9908 84.8641C91.4286 84.3235 91.5985 83.617 91.4555 82.9377L91.4551 82.9357M90.9908 84.8641L91.4551 82.9357M91.4551 82.9357C91.262 82.0362 90.6402 81.2256 89.8666 80.5333C89.0852 79.834 88.0994 79.2113 87.0878 78.6958C86.0741 78.1792 85.0179 77.7617 84.0847 77.4784C83.167 77.1998 82.3179 77.0353 81.7362 77.0632L81.7233 77.0638M91.4551 82.9357L81.7233 77.0638M81.7233 77.0638L81.7104 77.0651M81.7233 77.0638L81.7104 77.0651M81.7104 77.0651C78.8648 77.3496 77.4453 78.8357 76.7714 80.0663C75.3835 82.5945 75.8252 86.1209 77.259 90.3563C78.7034 94.6235 81.2151 99.7741 84.1914 105.658L84.2167 105.709C85.3004 107.852 86.3305 109.889 87.1883 111.711C87.8955 113.218 88.1936 114.535 88.1379 115.554C88.083 116.561 87.6914 117.237 87.0419 117.597C85.9047 118.225 83.8409 117.864 82.4994 115.776L82.4994 115.776M81.7104 77.0651L82.4994 115.776M82.4994 115.776C80.872 113.243 79.1998 110.143 77.5714 107.124L77.5659 107.114L82.4994 115.776ZM67.9545 95.5646L67.9571 95.5636C68.5886 95.3368 69.3101 95.388 69.9144 95.7568C71.0434 96.4316 72.1383 97.7815 73.3392 99.6565C74.5511 101.549 75.9175 104.053 77.5657 107.114L67.9545 95.5646ZM67.9545 95.5646C67.3076 95.801 66.8014 96.3108 66.5729 96.9602L67.9545 95.5646ZM63.6374 108.109L63.6375 108.109L63.6738 107.948C64.7873 103.025 65.4154 100.248 66.5728 96.9604L63.6374 108.109ZM63.6374 108.109L63.6237 108.17C63.1259 110.377 62.528 113.028 61.7414 116.358C60.8955 119.931 58.7333 121.165 57.3488 120.877L57.3423 120.876M63.6374 108.109L57.3423 120.876M57.3423 120.876C56.6765 120.746 56.0082 120.248 55.5684 119.261C55.1262 118.268 54.9243 116.789 55.2346 114.782C55.2347 114.782 55.2347 114.782 55.2347 114.782L56.2601 108.28L56.2601 108.279L56.262 108.268C58.637 93.2901 61.1009 77.7517 60.8622 62.1672L60.8622 62.1668M57.3423 120.876L60.8622 62.1668M60.8622 62.1668C60.7964 58.0711 62.1237 45.7456 63.4423 34.1687L63.4424 34.1685M60.8622 62.1668L63.4424 34.1685M63.4424 34.1685C63.7462 31.4918 64.7572 29.8539 66.1176 29.2961L66.1176 29.2962M63.4424 34.1685L66.1176 29.2962M66.1176 29.2962L66.1207 29.2948M66.1176 29.2962L66.1207 29.2948M66.1207 29.2948C67.1048 28.8836 68.2988 29.0792 69.2302 29.8285L66.1207 29.2948ZM75.0382 34.7807L75.0382 34.7806C75.6331 31.4314 74.5567 28.2332 72.1088 26.2604C69.8938 24.4705 66.9292 24.0036 64.3762 25.0527L64.3759 25.0528C63.4805 25.4215 62.2663 26.1318 61.1941 27.4816C60.1204 28.8332 59.2097 30.8004 58.8854 33.6495L58.8853 33.6496C57.5612 45.2981 56.2073 57.8564 56.2779 62.2387C56.5114 77.399 54.1968 92.0011 51.7378 107.514L51.73 107.563L51.7299 107.564L50.7043 114.082L50.7041 114.083C50.1884 117.414 50.6856 120.051 51.7971 121.959C52.9094 123.868 54.6212 125.016 56.4601 125.375C56.8811 125.458 57.3092 125.5 57.7405 125.5C61.2414 125.5 64.9232 122.826 66.201 117.414C66.9997 114.034 67.6057 111.35 68.1098 109.117L67.6559 109.014L68.1098 109.117C68.7368 106.338 69.2035 104.276 69.6849 102.453C70.8941 104.398 72.2934 106.99 73.5316 109.289L73.5317 109.289L73.5487 109.321C75.2004 112.384 76.919 115.571 78.6405 118.255L78.6408 118.256C81.0992 122.081 85.6468 123.615 89.2594 121.608C90.679 120.823 91.9364 119.403 92.4625 117.39C92.9888 115.377 92.7722 112.817 91.3347 109.76C90.4525 107.883 89.392 105.783 88.2831 103.59L88.1863 103.399C87.3983 101.84 86.53 100.123 85.6706 98.3545C87.959 98.6518 90.7437 97.987 93.7137 95.9083L93.714 95.9081C95.8708 94.3964 98.0855 92.2742 99.8231 89.8483C101.558 87.4257 102.841 84.6676 103.082 81.8868C103.332 79.0243 102.435 76.4614 100.48 74.5067C100.184 74.2102 99.5146 73.7372 98.6626 73.1824C97.792 72.6156 96.6821 71.933 95.4628 71.2099C93.2713 69.9104 90.7147 68.4733 88.5393 67.3344C90.9989 65.4121 92.5712 62.6648 93.1571 59.8292C94.363 53.9918 91.6119 46.7917 84.0452 45.0745C80.1247 44.1793 76.1764 45.4237 73.0338 48.4162C73.5028 44.3107 74.1911 39.5473 75.0382 34.7807ZM83.5546 85.6213L83.5539 85.6218C82.6064 86.3436 81.8593 87.1314 81.2949 87.9503C80.9403 86.8073 80.6884 85.764 80.5692 84.8599C80.4123 83.6708 80.4975 82.8085 80.7913 82.2732L80.7926 82.2709C80.839 82.1865 80.9008 82.074 81.0615 81.9586C81.2264 81.84 81.5331 81.6931 82.102 81.6332C82.2486 81.6371 82.5181 81.6927 82.8982 81.8161C83.2775 81.9393 83.7223 82.1149 84.1823 82.3206C84.8764 82.6309 85.5804 82.9984 86.1267 83.3382C85.1957 84.2412 84.1097 85.1999 83.5546 85.6213ZM82.0787 81.133L82.0787 81.1331L82.0787 81.133Z" fill="white" stroke="white"/>
</svg>
