<svg width="150" height="150" viewBox="0 0 150 150" fill="none" xmlns="http://www.w3.org/2000/svg">
<circle cx="75" cy="75" r="75" fill="#E38D3C"/>
<path d="M109.234 83.3874H120L119.996 66.6274H109.234C108.367 63.0828 106.971 59.7605 105.127 56.7233L112.748 49.1045L100.893 37.2633L93.2826 44.8747C90.2494 43.0302 86.9199 41.6338 83.3793 40.7745V30H66.6207V40.7708C63.0801 41.6301 59.7543 43.0265 56.7211 44.871L49.1066 37.2559L37.2627 49.1045L44.8735 56.7196C43.0254 59.7531 41.6292 63.0828 40.7625 66.6237L30 66.6163L30.0037 83.3763H40.7625C41.6292 86.9209 43.0254 90.2469 44.8735 93.2804L37.2553 100.896L49.1066 112.737L56.7174 105.125C59.7506 106.974 63.0801 108.37 66.6207 109.237V120L83.3756 119.993V109.237C86.9199 108.37 90.2494 106.974 93.2789 105.125L100.89 112.744L112.73 100.896L105.123 93.2804C106.971 90.2506 108.367 86.9246 109.234 83.3874ZM74.9981 91.9285C65.6504 91.9285 58.0729 84.3467 58.0729 75.0019C58.0729 65.6533 65.6504 58.0752 74.9981 58.0752C84.3459 58.0752 91.9271 65.6533 91.9271 75.0019C91.9271 84.3467 84.3459 91.9285 74.9981 91.9285Z" fill="white"/>
</svg>
