<svg width="150" height="150" viewBox="0 0 150 150" fill="none" xmlns="http://www.w3.org/2000/svg">
<circle cx="75" cy="75" r="75" fill="#E38D3C"/>
<path d="M73.563 114.5C94.5847 114.5 111.626 97.4586 111.626 76.4369C111.626 55.4153 94.5847 38.3739 73.563 38.3739C52.5414 38.3739 35.5 55.4153 35.5 76.4369C35.5 97.4586 52.5414 114.5 73.563 114.5Z" stroke="white" stroke-width="5" stroke-miterlimit="10" stroke-linecap="round" stroke-linejoin="round"/>
<path d="M73.5632 100.275C86.7284 100.275 97.401 89.6022 97.401 76.4369C97.401 63.2717 86.7284 52.5991 73.5632 52.5991C60.3979 52.5991 49.7253 63.2717 49.7253 76.4369C49.7253 89.6022 60.3979 100.275 73.5632 100.275Z" stroke="white" stroke-width="5" stroke-miterlimit="10" stroke-linecap="round" stroke-linejoin="round"/>
<path d="M73.564 86.0495C78.8729 86.0495 83.1766 81.7458 83.1766 76.4369C83.1766 71.128 78.8729 66.8243 73.564 66.8243C68.2551 66.8243 63.9514 71.128 63.9514 76.4369C63.9514 81.7458 68.2551 86.0495 73.564 86.0495Z" stroke="white" stroke-width="5" stroke-miterlimit="10" stroke-linecap="round" stroke-linejoin="round"/>
<mask id="path-5-outside-1" maskUnits="userSpaceOnUse" x="74.134" y="38.6025" width="38" height="38" fill="black">
<rect fill="white" x="74.134" y="38.6025" width="38" height="38"/>
<path d="M106.397 43.6025L79.1498 70.8653H79.134"/>
</mask>
<path d="M109.933 47.137C111.885 45.1839 111.884 42.018 109.931 40.066C107.978 38.1139 104.812 38.1148 102.86 40.068L109.933 47.137ZM79.1498 70.8653V75.8653C80.4764 75.8653 81.7486 75.3381 82.6864 74.3998L79.1498 70.8653ZM79.134 65.8653C76.3726 65.8653 74.134 68.1038 74.134 70.8653C74.134 73.6267 76.3726 75.8653 79.134 75.8653V65.8653ZM102.86 40.068L75.6133 67.3308L82.6864 74.3998L109.933 47.137L102.86 40.068ZM79.1498 65.8653H79.134V75.8653H79.1498V65.8653Z" fill="white" mask="url(#path-5-outside-1)"/>
<path d="M119.768 39.8107C120.51 39.0689 120.71 37.9429 120.269 36.9912C119.827 36.0395 118.839 35.4645 117.793 35.5515L114.284 35.8436L114.455 32.1148C114.503 31.0838 113.911 30.1296 112.967 29.7129C112.023 29.2961 110.92 29.5024 110.19 30.2322L104.078 36.3445L105.813 38.0801L104.078 36.3445C101.736 38.6861 101.736 42.4825 104.078 44.824L105.719 43.1825L104.078 44.824L105.177 45.923C107.518 48.2645 111.315 48.2645 113.656 45.923L119.768 39.8107Z" stroke="white" stroke-width="5" stroke-miterlimit="10" stroke-linecap="round" stroke-linejoin="round"/>
</svg>
