<svg width="150" height="150" viewBox="0 0 150 150" fill="none" xmlns="http://www.w3.org/2000/svg">
<circle cx="75" cy="75" r="75" fill="#E38D3C"/>
<path d="M74.8865 57.28C76.8698 57.28 78.4765 56.7556 79.6609 55.7222C80.8931 54.6489 81.5187 53.1967 81.5187 51.4045C81.5187 49.6145 80.8943 48.1611 79.662 47.0878C78.4754 46.0522 76.8676 45.5289 74.8865 45.5289C73.0143 45.5289 71.4398 46.0478 70.2065 47.0711C68.9109 48.1456 68.2554 49.6022 68.2554 51.4045C68.2554 53.2078 68.912 54.6667 70.2065 55.7378C71.4376 56.7611 73.0131 57.28 74.8865 57.28Z" fill="white"/>
<path d="M80.0809 98.4678V62.5444H64.322V68.5478H69.9176V98.4678H64.322V104.471H85.6776V98.4678H80.0809Z" fill="white"/>
<path d="M75 30.5556C99.5067 30.5556 119.444 50.4933 119.444 75C119.444 99.5067 99.5067 119.444 75 119.444C50.4933 119.444 30.5556 99.5067 30.5556 75C30.5556 50.4933 50.4933 30.5556 75 30.5556ZM75 25C47.3856 25 25 47.3856 25 75C25 102.614 47.3856 125 75 125C102.614 125 125 102.614 125 75C125 47.3856 102.614 25 75 25Z" fill="white"/>
</svg>
