<svg width="150" height="150" viewBox="0 0 150 150" fill="none" xmlns="http://www.w3.org/2000/svg">
<circle cx="75" cy="75" r="75" fill="#E38D3C"/>
<path d="M46.6467 120.25H46.6493H103.059V119L103.061 120.25C104.624 120.247 106.122 119.624 107.227 118.519C108.332 117.414 108.955 115.916 108.958 114.353V114.351V67.3695C108.958 65.8049 108.336 64.3043 107.23 63.198C106.124 62.0917 104.623 61.4701 103.059 61.4701H46.6493C45.0847 61.4701 43.5842 62.0917 42.4779 63.198C41.3715 64.3043 40.75 65.8049 40.75 67.3695L40.75 114.351L40.75 114.353C40.7533 115.916 41.3757 117.414 42.4808 118.519C43.5859 119.624 45.0838 120.247 46.6467 120.25ZM45.8186 67.3296V67.3296C45.8186 67.1074 45.9066 66.8941 46.0634 66.7366C46.2196 66.5797 46.4313 66.4907 46.6526 66.4889L103.053 66.5287C103.053 66.5288 103.054 66.5288 103.055 66.5288C103.276 66.5303 103.488 66.6193 103.645 66.7764C103.801 66.9339 103.889 67.1472 103.889 67.3695V114.347C103.888 114.568 103.799 114.779 103.643 114.935C103.487 115.091 103.276 115.18 103.055 115.181H46.6528C46.4321 115.18 46.2209 115.091 46.0648 114.935C45.9087 114.779 45.8202 114.568 45.8186 114.347V67.3296Z" fill="white" stroke="white" stroke-width="2.5"/>
<path d="M84.1681 84.8549V84.8518C84.1681 83.0096 83.6219 81.2088 82.5984 79.6771C81.5749 78.1454 80.1203 76.9516 78.4183 76.2466C76.7164 75.5416 74.8436 75.3572 73.0369 75.7166C71.2301 76.076 69.5705 76.9631 68.2679 78.2657C66.9652 79.5683 66.0782 81.2279 65.7188 83.0347C65.3594 84.8414 65.5438 86.7142 66.2488 88.4162C66.9538 90.1181 68.1476 91.5728 69.6793 92.5962C71.211 93.6197 73.0118 94.1659 74.854 94.1659V92.9159L74.857 94.1659C77.3246 94.1599 79.6894 93.1769 81.4343 91.4321C83.1791 89.6872 84.162 87.3224 84.1681 84.8549ZM74.8529 80.6261C75.9784 80.6285 77.0572 81.0766 77.8531 81.8725C78.6491 82.6685 79.0972 83.7473 79.0995 84.8729C79.0993 85.7122 78.8503 86.5326 78.384 87.2304C77.9175 87.9286 77.2544 88.4727 76.4787 88.7941C75.7029 89.1154 74.8493 89.1995 74.0257 89.0357C73.2021 88.8719 72.4456 88.4675 71.8519 87.8738C71.2581 87.28 70.8538 86.5235 70.69 85.7C70.5261 84.8764 70.6102 84.0228 70.9316 83.247C71.2529 82.4712 71.7971 81.8081 72.4952 81.3416C73.1931 80.8753 74.0136 80.6263 74.8529 80.6261Z" fill="white" stroke="white" stroke-width="2.5"/>
<path d="M73.5698 90.4016H72.3198V91.6516V103.628V104.878H73.5698H76.1384H77.3884V103.628V91.6516V90.4016H76.1384H73.5698Z" fill="white" stroke="white" stroke-width="2.5"/>
<path d="M57.3221 65.2943H58.5721V64.0443V47.1211C58.5821 43.3325 60.091 39.7019 62.7691 37.022C65.4471 34.3423 69.0766 32.8312 72.8651 32.8186H76.8428C80.6295 32.8337 84.2566 34.3459 86.9325 37.0253C89.609 39.7052 91.1166 43.3351 91.1263 47.1227L91.1294 48.3695H92.3763H94.9349H96.1876L96.1849 47.1167C96.1737 41.9893 94.134 37.0747 90.5114 33.446C86.8888 29.8174 81.9775 27.7697 76.8501 27.75H76.8453L72.863 27.75L72.8589 27.75C67.7296 27.7669 62.8156 29.8134 59.1907 33.4423C55.5658 37.0712 53.5247 41.9875 53.5134 47.1167V47.1195V64.0443V65.2943H54.7634H57.3221Z" fill="white" stroke="white" stroke-width="2.5"/>
</svg>
