<svg width="150" height="150" viewBox="0 0 150 150" fill="none" xmlns="http://www.w3.org/2000/svg">
<circle cx="75" cy="75" r="75" fill="#E38D3C"/>
<path fill-rule="evenodd" clip-rule="evenodd" d="M65.6558 87.3333H84.344C85.6267 87.3333 86.6666 88.3369 86.6666 89.6222V103.711C86.6666 104.975 85.664 106 84.344 106H65.6558C64.3731 106 63.3333 104.996 63.3333 103.711V89.6222C63.3333 88.3581 64.3359 87.3333 65.6558 87.3333ZM81.9999 92V101.333H67.9999V92H81.9999Z" fill="white"/>
<path fill-rule="evenodd" clip-rule="evenodd" d="M60.9893 36H89.0108C90.2936 36 91.3334 37.0036 91.3334 38.2889V57.0444C91.3334 58.3086 90.3308 59.3333 89.0108 59.3333H60.9893C59.7066 59.3333 58.6667 58.3297 58.6667 57.0444V38.2889C58.6667 37.0248 59.6694 36 60.9893 36ZM86.6667 40.6667V54.6667H63.3334V40.6667H86.6667Z" fill="white"/>
<path fill-rule="evenodd" clip-rule="evenodd" d="M28.3226 87.3333H47.0107C48.2935 87.3333 49.3333 88.3369 49.3333 89.6222V103.711C49.3333 104.975 48.3307 106 47.0107 106H28.3226C27.0399 106 26 104.996 26 103.711V89.6222C26 88.3581 27.0026 87.3333 28.3226 87.3333ZM44.6667 92V101.333H30.6667V92H44.6667Z" fill="white"/>
<path fill-rule="evenodd" clip-rule="evenodd" d="M102.989 87.3333H121.677C122.96 87.3333 124 88.3369 124 89.6222V103.711C124 104.975 122.997 106 121.677 106H102.989C101.707 106 100.667 104.996 100.667 103.711V89.6222C100.667 88.3581 101.669 87.3333 102.989 87.3333ZM119.333 92V101.333H105.333V92H119.333Z" fill="white"/>
<path d="M77.3334 57H72.6667V89.6667H77.3334V57Z" fill="white"/>
<path fill-rule="evenodd" clip-rule="evenodd" d="M39.9999 89.6667H35.3333V68.6667H114.667V89.6667H110V73.3333H39.9999V89.6667Z" fill="white"/>
</svg>
