<svg width="150" height="150" viewBox="0 0 150 150" fill="none" xmlns="http://www.w3.org/2000/svg">
<circle cx="75" cy="75" r="75" fill="#E96C2D"/>
<path d="M91.5311 125C92.3232 125 93.1153 124.802 93.9073 124.406C96.8776 123.02 98.0658 119.653 96.6796 116.683C96.6796 116.683 85.7885 91.7326 83.8083 82.6236C83.0163 79.4553 82.6202 70.9405 82.4222 66.9801C82.4222 65.5939 83.2143 64.4058 84.4024 64.0098L108.759 56.6831C111.729 55.891 113.511 52.5246 112.719 49.5543C111.927 46.584 108.561 44.8019 105.591 45.5939C105.591 45.5939 83.0163 52.9207 74.8974 52.9207C66.9766 52.9207 44.6004 45.792 44.6004 45.792C41.6301 44.9999 38.2638 46.386 37.2737 49.3563C36.2836 52.5246 38.0658 55.891 41.2341 56.6831L65.5905 64.0098C66.7786 64.4058 67.7687 65.5939 67.5707 66.9801C67.3727 70.9405 66.9767 79.4553 66.1846 82.6236C64.2044 91.7326 53.3133 116.683 53.3133 116.683C51.9271 119.653 53.3133 123.02 56.0856 124.406C56.8776 124.802 57.6697 125 58.4618 125C60.64 125 62.8182 123.812 63.6103 121.634L75.2935 97.8712L86.3826 121.832C87.3727 123.812 89.3529 125 91.5311 125Z" fill="white"/>
<path d="M75.2933 47.1782C81.4177 47.1782 86.3824 42.2135 86.3824 36.0891C86.3824 29.9648 81.4177 25 75.2933 25C69.169 25 64.2042 29.9648 64.2042 36.0891C64.2042 42.2135 69.169 47.1782 75.2933 47.1782Z" fill="white"/>
</svg>
