<svg width="150" height="150" viewBox="0 0 150 150" fill="none" xmlns="http://www.w3.org/2000/svg">
<circle cx="75" cy="75" r="75" fill="#E96C2D"/>
<path d="M43.8643 69.524C50.6364 69.524 56.1263 64.0342 56.1263 57.262C56.1263 50.4899 50.6364 45 43.8643 45C37.0922 45 31.6023 50.4899 31.6023 57.262C31.6023 64.0342 37.0922 69.524 43.8643 69.524Z" fill="white"/>
<path d="M58.6445 77.8447C56.2359 74.7792 52.5135 72.918 48.4626 72.918H39.2661C32.6972 72.918 27.1136 77.8447 26.3472 84.4136L25.0334 95.0334C24.8144 96.4567 25.6903 97.7705 27.1136 98.0989C32.3687 99.1937 38.0618 99.8506 43.8644 99.8506C46.273 99.8506 48.5721 99.7411 50.8712 99.5222L51.9661 89.9972C52.5135 85.0705 55.0316 80.8007 58.6445 77.8447Z" fill="white"/>
<path d="M106.16 69.524C112.932 69.524 118.422 64.0342 118.422 57.262C118.422 50.4899 112.932 45 106.16 45C99.3877 45 93.8978 50.4899 93.8978 57.262C93.8978 64.0342 99.3877 69.524 106.16 69.524Z" fill="white"/>
<path d="M123.677 84.4136C122.911 77.8447 117.327 72.918 110.758 72.918H101.561C97.5107 72.918 93.7883 74.7792 91.3796 77.8447C94.9926 80.8007 97.4012 85.0705 98.0581 89.9972L99.1529 99.5222C101.452 99.7411 103.751 99.8506 106.16 99.8506C111.962 99.8506 117.655 99.3032 122.911 98.0989C124.224 97.7705 125.1 96.4567 124.991 95.1429L123.677 84.4136Z" fill="white"/>
<path d="M79.5556 79.1584H70.4686C63.8996 79.1584 58.316 84.0852 57.5497 90.6541L56.2359 101.274C56.0169 102.697 57.0022 104.011 58.316 104.23C63.5712 105.325 69.2643 105.982 75.0668 105.982C80.8694 105.982 86.5625 105.434 91.8176 104.23C93.1314 103.901 94.1168 102.588 93.8978 101.274L92.4745 90.6541C91.7081 84.0852 86.1246 79.1584 79.5556 79.1584Z" fill="white"/>
<path d="M74.9573 75.7645C81.7295 75.7645 87.2194 70.2746 87.2194 63.5025C87.2194 56.7304 81.7295 51.2405 74.9573 51.2405C68.1852 51.2405 62.6953 56.7304 62.6953 63.5025C62.6953 70.2746 68.1852 75.7645 74.9573 75.7645Z" fill="white"/>
</svg>
