<svg width="150" height="150" viewBox="0 0 150 150" fill="none" xmlns="http://www.w3.org/2000/svg">
<circle cx="75" cy="75" r="75" fill="#E96C2D"/>
<path d="M73.4868 128.457L73.4699 128.455L73.453 128.454C46.8798 127.633 25.5 105.768 25.5 78.9999C25.5 51.714 47.7142 29.5 75 29.5C102.286 29.5 124.5 51.714 124.5 78.9999C124.5 105.768 103.12 127.633 76.5471 128.454L76.5329 128.455L76.5188 128.456C76.0245 128.499 75.5382 128.5 75 128.5C74.9506 128.5 74.9017 128.5 74.8533 128.5C74.3684 128.5 73.9318 128.501 73.4868 128.457ZM71.0883 39.386V38.4438L70.308 38.972C67.7547 40.7002 65.1726 43.8023 62.9231 48.4513C62.6519 49.0118 62.4024 49.6296 62.1593 50.2312C62.0723 50.4465 61.9862 50.6598 61.9002 50.8676L61.6141 51.5588H62.3622H70.5883H71.0883V51.0588V39.386ZM79.6921 38.972L78.9118 38.4438V39.386V51.0588V51.5588H79.4118H87.6379H88.386L88.0999 50.8676C88.0139 50.6598 87.9277 50.4465 87.8408 50.2312C87.5977 49.6296 87.3482 49.0119 87.077 48.4514C84.8275 43.8023 82.2453 40.7002 79.6921 38.972ZM57.3276 42.2535L58.1325 40.8441L56.674 41.5562C52.0205 43.8283 47.8693 46.9648 44.3941 50.7192L43.6169 51.5588H44.761H52.8493H53.2051L53.3217 51.2226C54.0784 49.0401 54.9405 46.9536 55.8729 45.0266C56.3364 44.0687 56.8146 43.1516 57.3276 42.2535ZM93.326 41.5562L91.8675 40.8441L92.6725 42.2535C93.1854 43.1516 93.6636 44.0687 94.1272 45.0266C95.0596 46.9536 95.9217 49.0401 96.6784 51.2226L96.7949 51.5588H97.1508H105.239H106.383L105.606 50.7192C102.131 46.9648 97.9796 43.8283 93.326 41.5562ZM38.511 59.3824H38.2086L38.0682 59.6503C35.6957 64.1776 34.1702 69.2163 33.6021 74.5352L33.543 75.0883H34.0993H48.6673H49.146L49.1668 74.6101C49.3915 69.4603 49.9832 64.5694 50.9488 59.9854L51.0759 59.3824H50.4596H38.511ZM59.5129 59.3824H59.1182L59.0266 59.7663C57.9503 64.2746 57.21 69.2677 56.9455 74.5633L56.9193 75.0883H57.4449H70.5883H71.0883V74.5883V59.8824V59.3824H70.5883H59.5129ZM79.4118 59.3824H78.9118V59.8824V74.5883V75.0883H79.4118H92.5552H93.0808L93.0546 74.5633C92.79 69.2677 92.0498 64.2746 90.9735 59.7663L90.8819 59.3824H90.4872H79.4118ZM99.5405 59.3824H98.9242L99.0512 59.9854C100.017 64.5694 100.609 69.4603 100.833 74.6101L100.854 75.0883H101.333H115.901H116.457L116.398 74.5352C115.83 69.2163 114.304 64.1776 111.932 59.6503L111.792 59.3824H111.489H99.5405ZM34.0533 82.9117H33.4978L33.5561 83.4642C34.119 88.796 35.6973 93.8176 38.068 98.3494L38.2083 98.6176H38.511H50.4136H51.0298L50.9029 98.0147C49.9413 93.4445 49.3893 88.5352 49.1668 83.3901L49.1461 82.9117H48.6673H34.0533ZM57.4449 82.9117H56.9195L56.9455 83.4364C57.2077 88.7345 57.9507 93.7295 59.0266 98.2338L59.1183 98.6176H59.5129H70.5883H71.0883V98.1176V83.4117V82.9117H70.5883H57.4449ZM79.4118 82.9117H78.9118V83.4117V98.1176V98.6176H79.4118H90.4872H90.8818L90.9735 98.2338C92.0494 93.7295 92.7924 88.7345 93.0546 83.4364L93.0806 82.9117H92.5552H79.4118ZM101.333 82.9117H100.854L100.833 83.3901C100.611 88.5352 100.059 93.4445 99.0972 98.0147L98.9703 98.6176H99.5864H111.489H111.792L111.932 98.3494C114.303 93.8176 115.881 88.796 116.444 83.4642L116.502 82.9117H115.947H101.333ZM44.7151 106.441H43.5731L44.3477 107.28C47.8417 111.066 52.0343 114.208 56.7205 116.49L58.1795 117.2L57.3733 115.792C56.8496 114.877 56.3461 113.906 55.8729 112.928C54.9394 110.998 54.0776 108.954 53.3216 106.777L53.205 106.441H52.8493H44.7151ZM62.3622 106.441H61.6137L61.9003 107.133C61.952 107.257 62.0036 107.383 62.0553 107.508C62.3335 108.183 62.6138 108.863 62.9231 109.503L63.3732 109.285L62.9231 109.503C65.1715 114.149 67.7538 117.285 70.3064 119.027L71.0883 119.561V118.614V106.941V106.441H70.5883H62.3622ZM79.4118 106.441H78.9118V106.941V118.614V119.561L79.6937 119.027C82.2463 117.285 84.8285 114.149 87.077 109.503L86.6269 109.285L87.077 109.503C87.3862 108.863 87.6666 108.183 87.9448 107.508C87.9965 107.383 88.0481 107.257 88.0998 107.133L88.3864 106.441H87.6379H79.4118ZM97.1508 106.441H96.7951L96.6785 106.777C95.9225 108.954 95.0607 110.998 94.1272 112.928C93.6539 113.906 93.1504 114.877 92.6268 115.792L91.8205 117.2L93.2796 116.49C97.9658 114.208 102.158 111.066 105.652 107.28L106.427 106.441H105.285H97.1508Z" fill="white" stroke="#E96C2D"/>
</svg>
